<svg xmlns="http://www.w3.org/2000/svg" viewBox="0 0 192 192" width="192" height="192">
  <rect width="192" height="192" rx="24" fill="url(#gradient192)"/>
  <defs>
    <linearGradient id="gradient192" x1="0%" y1="0%" x2="100%" y2="100%">
      <stop offset="0%" style="stop-color:#10b981"/>
      <stop offset="100%" style="stop-color:#059669"/>
    </linearGradient>
  </defs>
  <g transform="translate(48, 36)">
    <rect x="0" y="0" width="96" height="120" rx="8" fill="white" opacity="0.95"/>
    <rect x="12" y="12" width="72" height="10" rx="2" fill="#10b981" opacity="0.8"/>
    <rect x="12" y="30" width="60" height="7" rx="1.5" fill="#6b7280" opacity="0.6"/>
    <rect x="12" y="44" width="52" height="7" rx="1.5" fill="#6b7280" opacity="0.6"/>
    <rect x="12" y="62" width="45" height="7" rx="1.5" fill="#10b981" opacity="0.7"/>
    <rect x="12" y="76" width="68" height="5" rx="1.2" fill="#9ca3af" opacity="0.5"/>
    <rect x="12" y="86" width="60" height="5" rx="1.2" fill="#9ca3af" opacity="0.5"/>
    <rect x="12" y="102" width="45" height="7" rx="1.5" fill="#10b981" opacity="0.7"/>
    <rect x="12" y="114" width="52" height="5" rx="1.2" fill="#9ca3af" opacity="0.5"/>
  </g>
  <circle cx="156" cy="36" r="24" fill="#059669"/>
  <text x="156" y="46" text-anchor="middle" font-family="Arial, sans-serif" font-size="22" font-weight="bold" fill="white">CV</text>
</svg>
