<svg xmlns="http://www.w3.org/2000/svg" viewBox="0 0 180 180" width="180" height="180">
  <rect width="180" height="180" rx="32" fill="url(#gradient180)"/>
  <defs>
    <linearGradient id="gradient180" x1="0%" y1="0%" x2="100%" y2="100%">
      <stop offset="0%" style="stop-color:#10b981"/>
      <stop offset="100%" style="stop-color:#059669"/>
    </linearGradient>
  </defs>
  <g transform="translate(45, 33)">
    <rect x="0" y="0" width="90" height="114" rx="8" fill="white" opacity="0.95"/>
    <rect x="12" y="12" width="66" height="10" rx="2" fill="#10b981" opacity="0.8"/>
    <rect x="12" y="28" width="55" height="6" rx="1.5" fill="#6b7280" opacity="0.6"/>
    <rect x="12" y="40" width="50" height="6" rx="1.5" fill="#6b7280" opacity="0.6"/>
    <rect x="12" y="56" width="42" height="6" rx="1.5" fill="#10b981" opacity="0.7"/>
    <rect x="12" y="68" width="60" height="5" rx="1.2" fill="#9ca3af" opacity="0.5"/>
    <rect x="12" y="78" width="55" height="5" rx="1.2" fill="#9ca3af" opacity="0.5"/>
    <rect x="12" y="92" width="42" height="6" rx="1.5" fill="#10b981" opacity="0.7"/>
    <rect x="12" y="103" width="48" height="5" rx="1.2" fill="#9ca3af" opacity="0.5"/>
  </g>
  <circle cx="146" cy="34" r="22" fill="#059669"/>
  <text x="146" y="42" text-anchor="middle" font-family="Arial, sans-serif" font-size="18" font-weight="bold" fill="white">CV</text>
</svg>
