<svg xmlns="http://www.w3.org/2000/svg" viewBox="0 0 1200 630" width="1200" height="630">
  <!-- Background gradiente -->
  <defs>
    <linearGradient id="bgGradient" x1="0%" y1="0%" x2="100%" y2="100%">
      <stop offset="0%" style="stop-color:#10b981;stop-opacity:1" />
      <stop offset="50%" style="stop-color:#059669;stop-opacity:1" />
      <stop offset="100%" style="stop-color:#047857;stop-opacity:1" />
    </linearGradient>
    <linearGradient id="cardGradient" x1="0%" y1="0%" x2="0%" y2="100%">
      <stop offset="0%" style="stop-color:#ffffff;stop-opacity:0.95" />
      <stop offset="100%" style="stop-color:#f9fafb;stop-opacity:0.95" />
    </linearGradient>
  </defs>

  <!-- Background principal -->
  <rect width="1200" height="630" fill="url(#bgGradient)"/>

  <!-- Padrão decorativo de fundo -->
  <g opacity="0.1">
    <circle cx="150" cy="100" r="80" fill="white"/>
    <circle cx="1050" cy="530" r="100" fill="white"/>
    <circle cx="950" cy="150" r="60" fill="white"/>
    <circle cx="250" cy="500" r="70" fill="white"/>
  </g>

  <!-- Card central com currículo -->
  <g transform="translate(100, 115)">
    <!-- Sombra do card -->
    <rect x="8" y="8" width="400" height="400" rx="24" fill="black" opacity="0.15"/>

    <!-- Card branco -->
    <rect x="0" y="0" width="400" height="400" rx="24" fill="url(#cardGradient)"/>

    <!-- Cabeçalho do currículo -->
    <rect x="40" y="40" width="320" height="32" rx="6" fill="#10b981"/>
    <text x="200" y="64" text-anchor="middle" font-family="Arial, sans-serif" font-size="18" font-weight="bold" fill="white">NOME COMPLETO</text>

    <!-- Subtítulo -->
    <rect x="80" y="90" width="240" height="20" rx="4" fill="#6b7280" opacity="0.5"/>

    <!-- Linha divisória -->
    <line x1="40" y1="130" x2="360" y2="130" stroke="#e5e7eb" stroke-width="2"/>

    <!-- Seções do currículo -->
    <g transform="translate(40, 150)">
      <!-- Seção 1 -->
      <rect x="0" y="0" width="140" height="20" rx="4" fill="#10b981" opacity="0.8"/>
      <rect x="0" y="30" width="280" height="12" rx="3" fill="#9ca3af" opacity="0.4"/>
      <rect x="0" y="48" width="240" height="12" rx="3" fill="#9ca3af" opacity="0.4"/>

      <!-- Seção 2 -->
      <rect x="0" y="80" width="140" height="20" rx="4" fill="#10b981" opacity="0.8"/>
      <rect x="0" y="110" width="260" height="12" rx="3" fill="#9ca3af" opacity="0.4"/>
      <rect x="0" y="128" width="220" height="12" rx="3" fill="#9ca3af" opacity="0.4"/>

      <!-- Seção 3 -->
      <rect x="0" y="160" width="140" height="20" rx="4" fill="#10b981" opacity="0.8"/>
      <rect x="0" y="190" width="250" height="12" rx="3" fill="#9ca3af" opacity="0.4"/>
    </g>
  </g>

  <!-- Área de texto à direita -->
  <g transform="translate(550, 115)">
    <!-- Logo/Badge -->
    <g>
      <circle cx="60" cy="60" r="55" fill="white" opacity="0.2"/>
      <circle cx="60" cy="60" r="50" fill="white"/>
      <text x="60" y="75" text-anchor="middle" font-family="Arial, sans-serif" font-size="32" font-weight="bold" fill="#10b981">CV</text>
    </g>

    <!-- Título principal -->
    <text x="0" y="180" font-family="Arial, sans-serif" font-size="56" font-weight="900" fill="white" letter-spacing="0">
      <tspan x="0" dy="0">CVGratis</tspan>
      <tspan x="0" dy="64">Online</tspan>
    </text>

    <!-- Subtítulo -->
    <text x="0" y="320" font-family="Arial, sans-serif" font-size="28" font-weight="600" fill="white" opacity="0.95">
      <tspan x="0" dy="0">Crie seu currículo</tspan>
      <tspan x="0" dy="36">profissional em</tspan>
      <tspan x="0" dy="36" font-weight="900" font-size="32">3 MINUTOS</tspan>
    </text>
  </g>

  <!-- Badge de "100% GRÁTIS" -->
  <g transform="translate(850, 480)">
    <rect x="0" y="0" width="280" height="60" rx="30" fill="white"/>
    <text x="140" y="40" text-anchor="middle" font-family="Arial, sans-serif" font-size="28" font-weight="900" fill="#10b981">
      100% GRÁTIS
    </text>
  </g>

  <!-- Ícones de features (decorativo) -->
  <g transform="translate(100, 540)" opacity="0.9">
    <g transform="translate(0, 0)">
      <circle cx="20" cy="20" r="18" fill="white" opacity="0.3"/>
      <text x="20" y="28" text-anchor="middle" font-family="Arial, sans-serif" font-size="20" fill="white">✨</text>
      <text x="50" y="28" font-family="Arial, sans-serif" font-size="16" font-weight="600" fill="white">IA Integrada</text>
    </g>
    <g transform="translate(200, 0)">
      <circle cx="20" cy="20" r="18" fill="white" opacity="0.3"/>
      <text x="20" y="28" text-anchor="middle" font-family="Arial, sans-serif" font-size="20" fill="white">📄</text>
      <text x="50" y="28" font-family="Arial, sans-serif" font-size="16" font-weight="600" fill="white">PDF Download</text>
    </g>
    <g transform="translate(420, 0)">
      <circle cx="20" cy="20" r="18" fill="white" opacity="0.3"/>
      <text x="20" y="28" text-anchor="middle" font-family="Arial, sans-serif" font-size="20" fill="white">🎨</text>
      <text x="50" y="28" font-family="Arial, sans-serif" font-size="16" font-weight="600" fill="white">Templates Premium</text>
    </g>
  </g>
</svg>
